<mxfile host="app.diagrams.net" modified="2020-11-01T19:45:43.625Z" agent="5.0 (Windows)" etag="5eqkMfnRvrmHTYTWhsRU" version="13.8.8" type="github" pages="2">
  <diagram id="piDafpqhtRUU5qUU-vj8" name="Page-1">
    <mxGraphModel dx="1422" dy="763" grid="1" gridSize="10" guides="1" tooltips="1" connect="1" arrows="1" fold="1" page="1" pageScale="1" pageWidth="827" pageHeight="1169" math="0" shadow="0">
      <root>
        <mxCell id="0" />
        <mxCell id="1" parent="0" />
        <mxCell id="8962rQQDY3VNNf6We3Pp-1" value="" style="strokeWidth=1;shadow=0;dashed=0;align=center;html=1;shape=mxgraph.mockup.containers.browserWindow;rSize=0;strokeColor2=#008cff;strokeColor3=#c4c4c4;mainText=,;recursiveResize=0;strokeColor=#FFFFFF;fontColor=#FFFFFF;" parent="1" vertex="1">
          <mxGeometry x="10" y="10" width="1160" height="840" as="geometry" />
        </mxCell>
        <mxCell id="cFhcMxyRk2c1DOHxcZsI-2" value="" style="verticalLabelPosition=bottom;shadow=0;dashed=0;align=center;html=1;verticalAlign=top;strokeWidth=1;shape=mxgraph.mockup.graphics.simpleIcon;strokeColor=#999999;" vertex="1" parent="8962rQQDY3VNNf6We3Pp-1">
          <mxGeometry y="110" width="1160" height="730" as="geometry" />
        </mxCell>
        <mxCell id="8962rQQDY3VNNf6We3Pp-2" value="Home" style="strokeWidth=1;shadow=0;dashed=0;align=center;html=1;shape=mxgraph.mockup.containers.anchor;fontSize=17;fontColor=#666666;align=left;" parent="8962rQQDY3VNNf6We3Pp-1" vertex="1">
          <mxGeometry x="60" y="12" width="110" height="26" as="geometry" />
        </mxCell>
        <mxCell id="8962rQQDY3VNNf6We3Pp-3" value="https://www.house-of-cards.com" style="strokeWidth=1;shadow=0;dashed=0;align=center;html=1;shape=mxgraph.mockup.containers.anchor;rSize=0;fontSize=17;fontColor=#666666;align=left;" parent="8962rQQDY3VNNf6We3Pp-1" vertex="1">
          <mxGeometry x="130" y="60" width="250" height="26" as="geometry" />
        </mxCell>
        <mxCell id="8962rQQDY3VNNf6We3Pp-6" value="Create" style="rounded=1;fillColor=#F1F2F4;strokeColor=none;html=1;fontColor=#596780;align=left;fontSize=10;spacingLeft=10" parent="8962rQQDY3VNNf6We3Pp-1" vertex="1">
          <mxGeometry x="900" y="127" width="90" height="33" as="geometry" />
        </mxCell>
        <mxCell id="8962rQQDY3VNNf6We3Pp-7" value="" style="shape=triangle;direction=south;fillColor=#596780;strokeColor=none;html=1" parent="8962rQQDY3VNNf6We3Pp-6" vertex="1">
          <mxGeometry x="1" y="0.5" width="12" height="6" relative="1" as="geometry">
            <mxPoint x="-20" y="-3" as="offset" />
          </mxGeometry>
        </mxCell>
        <mxCell id="8962rQQDY3VNNf6We3Pp-8" value="Join" style="rounded=1;fillColor=#F1F2F4;strokeColor=none;html=1;fontColor=#596780;align=left;fontSize=10;spacingLeft=10" parent="8962rQQDY3VNNf6We3Pp-1" vertex="1">
          <mxGeometry x="790" y="127" width="90" height="33" as="geometry" />
        </mxCell>
        <mxCell id="8962rQQDY3VNNf6We3Pp-9" value="" style="shape=triangle;direction=south;fillColor=#596780;strokeColor=none;html=1" parent="8962rQQDY3VNNf6We3Pp-8" vertex="1">
          <mxGeometry x="1" y="0.5" width="12" height="6" relative="1" as="geometry">
            <mxPoint x="-20" y="-3" as="offset" />
          </mxGeometry>
        </mxCell>
        <mxCell id="8962rQQDY3VNNf6We3Pp-14" value="Log in" style="rounded=1;align=center;strokeColor=none;html=1;fontColor=#ffffff;fontSize=12;fillColor=#008CFF;" parent="8962rQQDY3VNNf6We3Pp-1" vertex="1">
          <mxGeometry x="1045" y="127" width="86" height="33" as="geometry" />
        </mxCell>
        <mxCell id="8962rQQDY3VNNf6We3Pp-16" value="House of Cards" style="text;html=1;strokeColor=none;fillColor=none;align=center;verticalAlign=middle;whiteSpace=wrap;rounded=0;fontSize=13;fontColor=#0066CC;" parent="8962rQQDY3VNNf6We3Pp-1" vertex="1">
          <mxGeometry x="140" y="130" width="100" height="20" as="geometry" />
        </mxCell>
        <mxCell id="8962rQQDY3VNNf6We3Pp-35" value="" style="verticalLabelPosition=bottom;shadow=0;dashed=0;align=center;html=1;verticalAlign=top;strokeWidth=1;shape=mxgraph.mockup.markup.line;strokeColor=#999999;fillColor=#008CFF;fontSize=13;fontColor=#0066CC;" parent="8962rQQDY3VNNf6We3Pp-1" vertex="1">
          <mxGeometry x="5" y="730" width="1150" height="20" as="geometry" />
        </mxCell>
        <mxCell id="8962rQQDY3VNNf6We3Pp-30" value="" style="shape=rect;fillColor=#ffffff;strokeColor=#eeeeee;shadow=0;fontSize=13;fontColor=#0066CC;" parent="8962rQQDY3VNNf6We3Pp-1" vertex="1">
          <mxGeometry x="430" y="780" width="300" height="40" as="geometry" />
        </mxCell>
        <mxCell id="8962rQQDY3VNNf6We3Pp-31" value="About" style="shape=rect;strokeColor=none;fillColor=none;fontSize=12;fontColor=#2196F3;dashed=0;" parent="8962rQQDY3VNNf6We3Pp-30" vertex="1">
          <mxGeometry width="75" height="40" as="geometry" />
        </mxCell>
        <mxCell id="8962rQQDY3VNNf6We3Pp-32" value="T&amp;C" style="shape=rect;strokeColor=none;fillColor=none;fontSize=12;fontColor=#2196F3;dashed=0;" parent="8962rQQDY3VNNf6We3Pp-30" vertex="1">
          <mxGeometry x="75" width="75" height="40" as="geometry" />
        </mxCell>
        <mxCell id="8962rQQDY3VNNf6We3Pp-33" value="Register" style="shape=rect;strokeColor=none;fillColor=none;fontSize=12;fontColor=#2196F3;dashed=0;" parent="8962rQQDY3VNNf6We3Pp-30" vertex="1">
          <mxGeometry x="150" width="75" height="40" as="geometry" />
        </mxCell>
        <mxCell id="8962rQQDY3VNNf6We3Pp-34" value="Support Us" style="shape=rect;strokeColor=none;fillColor=none;fontSize=12;fontColor=#2196F3;dashed=0;" parent="8962rQQDY3VNNf6We3Pp-30" vertex="1">
          <mxGeometry x="225" width="75" height="40" as="geometry" />
        </mxCell>
        <mxCell id="8962rQQDY3VNNf6We3Pp-36" value="" style="shape=image;html=1;verticalAlign=top;verticalLabelPosition=bottom;labelBackgroundColor=#ffffff;imageAspect=0;aspect=fixed;image=https://cdn3.iconfinder.com/data/icons/peelicons-vol-1/50/LinkedIn-128.png;fillColor=#008CFF;fontSize=13;fontColor=#0066CC;" parent="8962rQQDY3VNNf6We3Pp-1" vertex="1">
          <mxGeometry x="875" y="785" width="30" height="30" as="geometry" />
        </mxCell>
        <mxCell id="8962rQQDY3VNNf6We3Pp-37" value="" style="shape=image;html=1;verticalAlign=top;verticalLabelPosition=bottom;labelBackgroundColor=#ffffff;imageAspect=0;aspect=fixed;image=https://cdn3.iconfinder.com/data/icons/peelicons-vol-1/50/Facebook-128.png;fillColor=#008CFF;fontSize=13;fontColor=#0066CC;" parent="8962rQQDY3VNNf6We3Pp-1" vertex="1">
          <mxGeometry x="925" y="785" width="30" height="30" as="geometry" />
        </mxCell>
        <mxCell id="8962rQQDY3VNNf6We3Pp-38" value="" style="shape=image;html=1;verticalAlign=top;verticalLabelPosition=bottom;labelBackgroundColor=#ffffff;imageAspect=0;aspect=fixed;image=https://cdn3.iconfinder.com/data/icons/peelicons-vol-1/50/Twitter-128.png;fillColor=#008CFF;fontSize=13;fontColor=#0066CC;" parent="8962rQQDY3VNNf6We3Pp-1" vertex="1">
          <mxGeometry x="975" y="785" width="30" height="30" as="geometry" />
        </mxCell>
        <mxCell id="seymav8gBYocV3_De4xC-2" value="h" style="text;html=1;align=center;verticalAlign=middle;resizable=0;points=[];autosize=1;fontSize=37;fontFamily=Tahoma;fillColor=#008CFF;fontColor=#FFFFFF;" parent="8962rQQDY3VNNf6We3Pp-1" vertex="1">
          <mxGeometry x="100" y="110" width="40" height="50" as="geometry" />
        </mxCell>
      </root>
    </mxGraphModel>
  </diagram>
  <diagram id="2egh3D6s47ExAJgRTMho" name="Page-2">
    <mxGraphModel dx="1422" dy="763" grid="1" gridSize="10" guides="1" tooltips="1" connect="1" arrows="1" fold="1" page="1" pageScale="1" pageWidth="1169" pageHeight="827" math="0" shadow="0">
      <root>
        <mxCell id="RUbydyyFH8a4vVnsBezM-0" />
        <mxCell id="RUbydyyFH8a4vVnsBezM-1" parent="RUbydyyFH8a4vVnsBezM-0" />
        <mxCell id="WskvGfdPPy441grqd4b4-0" value="" style="strokeWidth=1;shadow=0;dashed=0;align=center;html=1;shape=mxgraph.mockup.containers.browserWindow;rSize=0;strokeColor2=#008cff;strokeColor3=#c4c4c4;mainText=,;recursiveResize=0;strokeColor=#FFFFFF;fontColor=#FFFFFF;" vertex="1" parent="RUbydyyFH8a4vVnsBezM-1">
          <mxGeometry x="20" y="20" width="1160" height="840" as="geometry" />
        </mxCell>
        <mxCell id="WskvGfdPPy441grqd4b4-1" value="" style="verticalLabelPosition=bottom;shadow=0;dashed=0;align=center;html=1;verticalAlign=top;strokeWidth=1;shape=mxgraph.mockup.graphics.simpleIcon;strokeColor=#999999;" vertex="1" parent="WskvGfdPPy441grqd4b4-0">
          <mxGeometry y="110" width="1160" height="730" as="geometry" />
        </mxCell>
        <mxCell id="WskvGfdPPy441grqd4b4-2" value="Play" style="strokeWidth=1;shadow=0;dashed=0;align=center;html=1;shape=mxgraph.mockup.containers.anchor;fontSize=17;fontColor=#666666;align=left;" vertex="1" parent="WskvGfdPPy441grqd4b4-0">
          <mxGeometry x="60" y="12" width="110" height="26" as="geometry" />
        </mxCell>
        <mxCell id="WskvGfdPPy441grqd4b4-3" value="https://www.house-of-cards.com" style="strokeWidth=1;shadow=0;dashed=0;align=center;html=1;shape=mxgraph.mockup.containers.anchor;rSize=0;fontSize=17;fontColor=#666666;align=left;" vertex="1" parent="WskvGfdPPy441grqd4b4-0">
          <mxGeometry x="130" y="60" width="250" height="26" as="geometry" />
        </mxCell>
        <mxCell id="WskvGfdPPy441grqd4b4-4" value="Create" style="rounded=1;fillColor=#F1F2F4;strokeColor=none;html=1;fontColor=#596780;align=left;fontSize=10;spacingLeft=10" vertex="1" parent="WskvGfdPPy441grqd4b4-0">
          <mxGeometry x="900" y="127" width="90" height="33" as="geometry" />
        </mxCell>
        <mxCell id="WskvGfdPPy441grqd4b4-5" value="" style="shape=triangle;direction=south;fillColor=#596780;strokeColor=none;html=1" vertex="1" parent="WskvGfdPPy441grqd4b4-4">
          <mxGeometry x="1" y="0.5" width="12" height="6" relative="1" as="geometry">
            <mxPoint x="-20" y="-3" as="offset" />
          </mxGeometry>
        </mxCell>
        <mxCell id="WskvGfdPPy441grqd4b4-6" value="Join" style="rounded=1;fillColor=#F1F2F4;strokeColor=none;html=1;fontColor=#596780;align=left;fontSize=10;spacingLeft=10" vertex="1" parent="WskvGfdPPy441grqd4b4-0">
          <mxGeometry x="790" y="127" width="90" height="33" as="geometry" />
        </mxCell>
        <mxCell id="WskvGfdPPy441grqd4b4-7" value="" style="shape=triangle;direction=south;fillColor=#596780;strokeColor=none;html=1" vertex="1" parent="WskvGfdPPy441grqd4b4-6">
          <mxGeometry x="1" y="0.5" width="12" height="6" relative="1" as="geometry">
            <mxPoint x="-20" y="-3" as="offset" />
          </mxGeometry>
        </mxCell>
        <mxCell id="WskvGfdPPy441grqd4b4-8" value="Log out" style="rounded=1;align=center;strokeColor=none;html=1;fontColor=#ffffff;fontSize=12;fillColor=#008CFF;" vertex="1" parent="WskvGfdPPy441grqd4b4-0">
          <mxGeometry x="1045" y="127" width="86" height="33" as="geometry" />
        </mxCell>
        <mxCell id="WskvGfdPPy441grqd4b4-9" value="House of Cards" style="text;html=1;strokeColor=none;fillColor=none;align=center;verticalAlign=middle;whiteSpace=wrap;rounded=0;fontSize=13;fontColor=#0066CC;" vertex="1" parent="WskvGfdPPy441grqd4b4-0">
          <mxGeometry x="140" y="130" width="100" height="20" as="geometry" />
        </mxCell>
        <mxCell id="WskvGfdPPy441grqd4b4-10" value="" style="verticalLabelPosition=bottom;shadow=0;dashed=0;align=center;html=1;verticalAlign=top;strokeWidth=1;shape=mxgraph.mockup.markup.line;strokeColor=#999999;fillColor=#008CFF;fontSize=13;fontColor=#0066CC;" vertex="1" parent="WskvGfdPPy441grqd4b4-0">
          <mxGeometry x="5" y="730" width="1150" height="20" as="geometry" />
        </mxCell>
        <mxCell id="WskvGfdPPy441grqd4b4-11" value="" style="shape=rect;fillColor=#ffffff;strokeColor=#eeeeee;shadow=0;fontSize=13;fontColor=#0066CC;" vertex="1" parent="WskvGfdPPy441grqd4b4-0">
          <mxGeometry x="430" y="780" width="300" height="40" as="geometry" />
        </mxCell>
        <mxCell id="WskvGfdPPy441grqd4b4-12" value="About" style="shape=rect;strokeColor=none;fillColor=none;fontSize=12;fontColor=#2196F3;dashed=0;" vertex="1" parent="WskvGfdPPy441grqd4b4-11">
          <mxGeometry width="75" height="40" as="geometry" />
        </mxCell>
        <mxCell id="WskvGfdPPy441grqd4b4-13" value="T&amp;C" style="shape=rect;strokeColor=none;fillColor=none;fontSize=12;fontColor=#2196F3;dashed=0;" vertex="1" parent="WskvGfdPPy441grqd4b4-11">
          <mxGeometry x="75" width="75" height="40" as="geometry" />
        </mxCell>
        <mxCell id="WskvGfdPPy441grqd4b4-14" value="Register" style="shape=rect;strokeColor=none;fillColor=none;fontSize=12;fontColor=#2196F3;dashed=0;" vertex="1" parent="WskvGfdPPy441grqd4b4-11">
          <mxGeometry x="150" width="75" height="40" as="geometry" />
        </mxCell>
        <mxCell id="WskvGfdPPy441grqd4b4-15" value="Support Us" style="shape=rect;strokeColor=none;fillColor=none;fontSize=12;fontColor=#2196F3;dashed=0;" vertex="1" parent="WskvGfdPPy441grqd4b4-11">
          <mxGeometry x="225" width="75" height="40" as="geometry" />
        </mxCell>
        <mxCell id="WskvGfdPPy441grqd4b4-16" value="" style="shape=image;html=1;verticalAlign=top;verticalLabelPosition=bottom;labelBackgroundColor=#ffffff;imageAspect=0;aspect=fixed;image=https://cdn3.iconfinder.com/data/icons/peelicons-vol-1/50/LinkedIn-128.png;fillColor=#008CFF;fontSize=13;fontColor=#0066CC;" vertex="1" parent="WskvGfdPPy441grqd4b4-0">
          <mxGeometry x="875" y="785" width="30" height="30" as="geometry" />
        </mxCell>
        <mxCell id="WskvGfdPPy441grqd4b4-17" value="" style="shape=image;html=1;verticalAlign=top;verticalLabelPosition=bottom;labelBackgroundColor=#ffffff;imageAspect=0;aspect=fixed;image=https://cdn3.iconfinder.com/data/icons/peelicons-vol-1/50/Facebook-128.png;fillColor=#008CFF;fontSize=13;fontColor=#0066CC;" vertex="1" parent="WskvGfdPPy441grqd4b4-0">
          <mxGeometry x="925" y="785" width="30" height="30" as="geometry" />
        </mxCell>
        <mxCell id="WskvGfdPPy441grqd4b4-18" value="" style="shape=image;html=1;verticalAlign=top;verticalLabelPosition=bottom;labelBackgroundColor=#ffffff;imageAspect=0;aspect=fixed;image=https://cdn3.iconfinder.com/data/icons/peelicons-vol-1/50/Twitter-128.png;fillColor=#008CFF;fontSize=13;fontColor=#0066CC;" vertex="1" parent="WskvGfdPPy441grqd4b4-0">
          <mxGeometry x="975" y="785" width="30" height="30" as="geometry" />
        </mxCell>
        <mxCell id="WskvGfdPPy441grqd4b4-19" value="h" style="text;html=1;align=center;verticalAlign=middle;resizable=0;points=[];autosize=1;fontSize=37;fontFamily=Tahoma;fillColor=#008CFF;fontColor=#FFFFFF;" vertex="1" parent="WskvGfdPPy441grqd4b4-0">
          <mxGeometry x="100" y="110" width="40" height="50" as="geometry" />
        </mxCell>
        <mxCell id="WskvGfdPPy441grqd4b4-20" value="" style="verticalLabelPosition=bottom;shadow=0;dashed=0;align=center;html=1;verticalAlign=top;strokeWidth=1;shape=mxgraph.mockup.graphics.simpleIcon;strokeColor=#999999;fillColor=#ffffff;" vertex="1" parent="WskvGfdPPy441grqd4b4-0">
          <mxGeometry x="100" y="290" width="50" height="50" as="geometry" />
        </mxCell>
        <mxCell id="WskvGfdPPy441grqd4b4-21" value="" style="verticalLabelPosition=bottom;shadow=0;dashed=0;align=center;html=1;verticalAlign=top;strokeWidth=1;shape=mxgraph.mockup.graphics.simpleIcon;strokeColor=#999999;fillColor=#ffffff;" vertex="1" parent="WskvGfdPPy441grqd4b4-0">
          <mxGeometry x="175" y="290" width="50" height="50" as="geometry" />
        </mxCell>
        <mxCell id="WskvGfdPPy441grqd4b4-22" value="" style="verticalLabelPosition=bottom;shadow=0;dashed=0;align=center;html=1;verticalAlign=top;strokeWidth=1;shape=mxgraph.mockup.graphics.simpleIcon;strokeColor=#999999;fillColor=#ffffff;" vertex="1" parent="WskvGfdPPy441grqd4b4-0">
          <mxGeometry x="250" y="290" width="50" height="50" as="geometry" />
        </mxCell>
        <mxCell id="WskvGfdPPy441grqd4b4-25" value="" style="verticalLabelPosition=bottom;shadow=0;dashed=0;align=center;html=1;verticalAlign=top;strokeWidth=1;shape=mxgraph.mockup.graphics.simpleIcon;strokeColor=#999999;fillColor=#ffffff;" vertex="1" parent="WskvGfdPPy441grqd4b4-0">
          <mxGeometry x="250" y="365" width="50" height="50" as="geometry" />
        </mxCell>
        <mxCell id="WskvGfdPPy441grqd4b4-24" value="" style="verticalLabelPosition=bottom;shadow=0;dashed=0;align=center;html=1;verticalAlign=top;strokeWidth=1;shape=mxgraph.mockup.graphics.simpleIcon;strokeColor=#999999;fillColor=#ffffff;" vertex="1" parent="WskvGfdPPy441grqd4b4-0">
          <mxGeometry x="175" y="365" width="50" height="50" as="geometry" />
        </mxCell>
        <mxCell id="WskvGfdPPy441grqd4b4-23" value="" style="verticalLabelPosition=bottom;shadow=0;dashed=0;align=center;html=1;verticalAlign=top;strokeWidth=1;shape=mxgraph.mockup.graphics.simpleIcon;strokeColor=#999999;fillColor=#ffffff;" vertex="1" parent="WskvGfdPPy441grqd4b4-0">
          <mxGeometry x="100" y="365" width="50" height="50" as="geometry" />
        </mxCell>
        <mxCell id="WskvGfdPPy441grqd4b4-26" value="" style="verticalLabelPosition=bottom;shadow=0;dashed=0;align=center;html=1;verticalAlign=top;strokeWidth=1;shape=mxgraph.mockup.graphics.simpleIcon;strokeColor=#999999;fillColor=#ffffff;" vertex="1" parent="WskvGfdPPy441grqd4b4-0">
          <mxGeometry x="100" y="440" width="50" height="50" as="geometry" />
        </mxCell>
        <mxCell id="WskvGfdPPy441grqd4b4-27" value="" style="verticalLabelPosition=bottom;shadow=0;dashed=0;align=center;html=1;verticalAlign=top;strokeWidth=1;shape=mxgraph.mockup.graphics.simpleIcon;strokeColor=#999999;fillColor=#ffffff;" vertex="1" parent="WskvGfdPPy441grqd4b4-0">
          <mxGeometry x="175" y="440" width="50" height="50" as="geometry" />
        </mxCell>
        <mxCell id="WskvGfdPPy441grqd4b4-28" value="" style="verticalLabelPosition=bottom;shadow=0;dashed=0;align=center;html=1;verticalAlign=top;strokeWidth=1;shape=mxgraph.mockup.graphics.simpleIcon;strokeColor=#999999;fillColor=#ffffff;" vertex="1" parent="WskvGfdPPy441grqd4b4-0">
          <mxGeometry x="250" y="440" width="50" height="50" as="geometry" />
        </mxCell>
        <mxCell id="WskvGfdPPy441grqd4b4-29" value="" style="verticalLabelPosition=bottom;shadow=0;dashed=0;align=center;html=1;verticalAlign=top;strokeWidth=1;shape=mxgraph.mockup.graphics.simpleIcon;strokeColor=#999999;fillColor=#ffffff;" vertex="1" parent="WskvGfdPPy441grqd4b4-0">
          <mxGeometry x="320" y="290" width="50" height="50" as="geometry" />
        </mxCell>
        <mxCell id="WskvGfdPPy441grqd4b4-30" value="" style="verticalLabelPosition=bottom;shadow=0;dashed=0;align=center;html=1;verticalAlign=top;strokeWidth=1;shape=mxgraph.mockup.graphics.simpleIcon;strokeColor=#999999;fillColor=#ffffff;" vertex="1" parent="WskvGfdPPy441grqd4b4-0">
          <mxGeometry x="395" y="290" width="50" height="50" as="geometry" />
        </mxCell>
        <mxCell id="WskvGfdPPy441grqd4b4-31" value="" style="verticalLabelPosition=bottom;shadow=0;dashed=0;align=center;html=1;verticalAlign=top;strokeWidth=1;shape=mxgraph.mockup.graphics.simpleIcon;strokeColor=#999999;fillColor=#ffffff;" vertex="1" parent="WskvGfdPPy441grqd4b4-0">
          <mxGeometry x="470" y="290" width="50" height="50" as="geometry" />
        </mxCell>
        <mxCell id="WskvGfdPPy441grqd4b4-32" value="" style="verticalLabelPosition=bottom;shadow=0;dashed=0;align=center;html=1;verticalAlign=top;strokeWidth=1;shape=mxgraph.mockup.graphics.simpleIcon;strokeColor=#999999;fillColor=#ffffff;" vertex="1" parent="WskvGfdPPy441grqd4b4-0">
          <mxGeometry x="470" y="365" width="50" height="50" as="geometry" />
        </mxCell>
        <mxCell id="WskvGfdPPy441grqd4b4-33" value="" style="verticalLabelPosition=bottom;shadow=0;dashed=0;align=center;html=1;verticalAlign=top;strokeWidth=1;shape=mxgraph.mockup.graphics.simpleIcon;strokeColor=#999999;fillColor=#ffffff;" vertex="1" parent="WskvGfdPPy441grqd4b4-0">
          <mxGeometry x="395" y="365" width="50" height="50" as="geometry" />
        </mxCell>
        <mxCell id="WskvGfdPPy441grqd4b4-34" value="" style="verticalLabelPosition=bottom;shadow=0;dashed=0;align=center;html=1;verticalAlign=top;strokeWidth=1;shape=mxgraph.mockup.graphics.simpleIcon;strokeColor=#999999;fillColor=#ffffff;" vertex="1" parent="WskvGfdPPy441grqd4b4-0">
          <mxGeometry x="320" y="365" width="50" height="50" as="geometry" />
        </mxCell>
        <mxCell id="WskvGfdPPy441grqd4b4-35" value="" style="verticalLabelPosition=bottom;shadow=0;dashed=0;align=center;html=1;verticalAlign=top;strokeWidth=1;shape=mxgraph.mockup.graphics.simpleIcon;strokeColor=#999999;fillColor=#ffffff;" vertex="1" parent="WskvGfdPPy441grqd4b4-0">
          <mxGeometry x="320" y="440" width="50" height="50" as="geometry" />
        </mxCell>
        <mxCell id="WskvGfdPPy441grqd4b4-36" value="" style="verticalLabelPosition=bottom;shadow=0;dashed=0;align=center;html=1;verticalAlign=top;strokeWidth=1;shape=mxgraph.mockup.graphics.simpleIcon;strokeColor=#999999;fillColor=#ffffff;" vertex="1" parent="WskvGfdPPy441grqd4b4-0">
          <mxGeometry x="395" y="440" width="50" height="50" as="geometry" />
        </mxCell>
        <mxCell id="WskvGfdPPy441grqd4b4-37" value="" style="verticalLabelPosition=bottom;shadow=0;dashed=0;align=center;html=1;verticalAlign=top;strokeWidth=1;shape=mxgraph.mockup.graphics.simpleIcon;strokeColor=#999999;fillColor=#ffffff;" vertex="1" parent="WskvGfdPPy441grqd4b4-0">
          <mxGeometry x="470" y="440" width="50" height="50" as="geometry" />
        </mxCell>
        <mxCell id="WskvGfdPPy441grqd4b4-38" value="" style="verticalLabelPosition=bottom;shadow=0;dashed=0;align=center;html=1;verticalAlign=top;strokeWidth=1;shape=mxgraph.mockup.graphics.simpleIcon;strokeColor=#999999;fillColor=#ffffff;" vertex="1" parent="WskvGfdPPy441grqd4b4-0">
          <mxGeometry x="550" y="290" width="50" height="50" as="geometry" />
        </mxCell>
        <mxCell id="WskvGfdPPy441grqd4b4-39" value="" style="verticalLabelPosition=bottom;shadow=0;dashed=0;align=center;html=1;verticalAlign=top;strokeWidth=1;shape=mxgraph.mockup.graphics.simpleIcon;strokeColor=#999999;fillColor=#ffffff;" vertex="1" parent="WskvGfdPPy441grqd4b4-0">
          <mxGeometry x="625" y="290" width="50" height="50" as="geometry" />
        </mxCell>
        <mxCell id="WskvGfdPPy441grqd4b4-40" value="" style="verticalLabelPosition=bottom;shadow=0;dashed=0;align=center;html=1;verticalAlign=top;strokeWidth=1;shape=mxgraph.mockup.graphics.simpleIcon;strokeColor=#999999;fillColor=#ffffff;" vertex="1" parent="WskvGfdPPy441grqd4b4-0">
          <mxGeometry x="700" y="290" width="50" height="50" as="geometry" />
        </mxCell>
        <mxCell id="WskvGfdPPy441grqd4b4-41" value="" style="verticalLabelPosition=bottom;shadow=0;dashed=0;align=center;html=1;verticalAlign=top;strokeWidth=1;shape=mxgraph.mockup.graphics.simpleIcon;strokeColor=#999999;fillColor=#ffffff;" vertex="1" parent="WskvGfdPPy441grqd4b4-0">
          <mxGeometry x="700" y="365" width="50" height="50" as="geometry" />
        </mxCell>
        <mxCell id="WskvGfdPPy441grqd4b4-42" value="" style="verticalLabelPosition=bottom;shadow=0;dashed=0;align=center;html=1;verticalAlign=top;strokeWidth=1;shape=mxgraph.mockup.graphics.simpleIcon;strokeColor=#999999;fillColor=#ffffff;" vertex="1" parent="WskvGfdPPy441grqd4b4-0">
          <mxGeometry x="625" y="365" width="50" height="50" as="geometry" />
        </mxCell>
        <mxCell id="WskvGfdPPy441grqd4b4-43" value="" style="verticalLabelPosition=bottom;shadow=0;dashed=0;align=center;html=1;verticalAlign=top;strokeWidth=1;shape=mxgraph.mockup.graphics.simpleIcon;strokeColor=#999999;fillColor=#ffffff;" vertex="1" parent="WskvGfdPPy441grqd4b4-0">
          <mxGeometry x="550" y="365" width="50" height="50" as="geometry" />
        </mxCell>
        <mxCell id="WskvGfdPPy441grqd4b4-44" value="" style="verticalLabelPosition=bottom;shadow=0;dashed=0;align=center;html=1;verticalAlign=top;strokeWidth=1;shape=mxgraph.mockup.graphics.simpleIcon;strokeColor=#999999;fillColor=#ffffff;" vertex="1" parent="WskvGfdPPy441grqd4b4-0">
          <mxGeometry x="550" y="440" width="50" height="50" as="geometry" />
        </mxCell>
        <mxCell id="WskvGfdPPy441grqd4b4-45" value="" style="verticalLabelPosition=bottom;shadow=0;dashed=0;align=center;html=1;verticalAlign=top;strokeWidth=1;shape=mxgraph.mockup.graphics.simpleIcon;strokeColor=#999999;fillColor=#ffffff;" vertex="1" parent="WskvGfdPPy441grqd4b4-0">
          <mxGeometry x="625" y="440" width="50" height="50" as="geometry" />
        </mxCell>
        <mxCell id="WskvGfdPPy441grqd4b4-46" value="" style="verticalLabelPosition=bottom;shadow=0;dashed=0;align=center;html=1;verticalAlign=top;strokeWidth=1;shape=mxgraph.mockup.graphics.simpleIcon;strokeColor=#999999;fillColor=#ffffff;" vertex="1" parent="WskvGfdPPy441grqd4b4-0">
          <mxGeometry x="700" y="440" width="50" height="50" as="geometry" />
        </mxCell>
        <mxCell id="WskvGfdPPy441grqd4b4-47" value="" style="verticalLabelPosition=bottom;shadow=0;dashed=0;align=center;html=1;verticalAlign=top;strokeWidth=1;shape=mxgraph.mockup.graphics.simpleIcon;strokeColor=#999999;fillColor=#ffffff;" vertex="1" parent="WskvGfdPPy441grqd4b4-0">
          <mxGeometry x="770" y="290" width="50" height="50" as="geometry" />
        </mxCell>
        <mxCell id="WskvGfdPPy441grqd4b4-48" value="" style="verticalLabelPosition=bottom;shadow=0;dashed=0;align=center;html=1;verticalAlign=top;strokeWidth=1;shape=mxgraph.mockup.graphics.simpleIcon;strokeColor=#999999;fillColor=#ffffff;" vertex="1" parent="WskvGfdPPy441grqd4b4-0">
          <mxGeometry x="845" y="290" width="50" height="50" as="geometry" />
        </mxCell>
        <mxCell id="WskvGfdPPy441grqd4b4-49" value="" style="verticalLabelPosition=bottom;shadow=0;dashed=0;align=center;html=1;verticalAlign=top;strokeWidth=1;shape=mxgraph.mockup.graphics.simpleIcon;strokeColor=#999999;fillColor=#ffffff;" vertex="1" parent="WskvGfdPPy441grqd4b4-0">
          <mxGeometry x="920" y="290" width="50" height="50" as="geometry" />
        </mxCell>
        <mxCell id="WskvGfdPPy441grqd4b4-50" value="" style="verticalLabelPosition=bottom;shadow=0;dashed=0;align=center;html=1;verticalAlign=top;strokeWidth=1;shape=mxgraph.mockup.graphics.simpleIcon;strokeColor=#999999;fillColor=#ffffff;" vertex="1" parent="WskvGfdPPy441grqd4b4-0">
          <mxGeometry x="920" y="365" width="50" height="50" as="geometry" />
        </mxCell>
        <mxCell id="WskvGfdPPy441grqd4b4-51" value="" style="verticalLabelPosition=bottom;shadow=0;dashed=0;align=center;html=1;verticalAlign=top;strokeWidth=1;shape=mxgraph.mockup.graphics.simpleIcon;strokeColor=#999999;fillColor=#ffffff;" vertex="1" parent="WskvGfdPPy441grqd4b4-0">
          <mxGeometry x="845" y="365" width="50" height="50" as="geometry" />
        </mxCell>
        <mxCell id="WskvGfdPPy441grqd4b4-52" value="" style="verticalLabelPosition=bottom;shadow=0;dashed=0;align=center;html=1;verticalAlign=top;strokeWidth=1;shape=mxgraph.mockup.graphics.simpleIcon;strokeColor=#999999;fillColor=#ffffff;" vertex="1" parent="WskvGfdPPy441grqd4b4-0">
          <mxGeometry x="770" y="365" width="50" height="50" as="geometry" />
        </mxCell>
        <mxCell id="WskvGfdPPy441grqd4b4-53" value="" style="verticalLabelPosition=bottom;shadow=0;dashed=0;align=center;html=1;verticalAlign=top;strokeWidth=1;shape=mxgraph.mockup.graphics.simpleIcon;strokeColor=#999999;fillColor=#ffffff;" vertex="1" parent="WskvGfdPPy441grqd4b4-0">
          <mxGeometry x="770" y="440" width="50" height="50" as="geometry" />
        </mxCell>
        <mxCell id="WskvGfdPPy441grqd4b4-54" value="" style="verticalLabelPosition=bottom;shadow=0;dashed=0;align=center;html=1;verticalAlign=top;strokeWidth=1;shape=mxgraph.mockup.graphics.simpleIcon;strokeColor=#999999;fillColor=#ffffff;" vertex="1" parent="WskvGfdPPy441grqd4b4-0">
          <mxGeometry x="845" y="440" width="50" height="50" as="geometry" />
        </mxCell>
        <mxCell id="WskvGfdPPy441grqd4b4-55" value="" style="verticalLabelPosition=bottom;shadow=0;dashed=0;align=center;html=1;verticalAlign=top;strokeWidth=1;shape=mxgraph.mockup.graphics.simpleIcon;strokeColor=#999999;fillColor=#ffffff;" vertex="1" parent="WskvGfdPPy441grqd4b4-0">
          <mxGeometry x="920" y="440" width="50" height="50" as="geometry" />
        </mxCell>
        <mxCell id="WskvGfdPPy441grqd4b4-56" value="" style="verticalLabelPosition=bottom;shadow=0;dashed=0;align=center;html=1;verticalAlign=top;strokeWidth=1;shape=mxgraph.mockup.graphics.simpleIcon;strokeColor=#999999;fillColor=#ffffff;" vertex="1" parent="WskvGfdPPy441grqd4b4-0">
          <mxGeometry x="100" y="520" width="50" height="50" as="geometry" />
        </mxCell>
        <mxCell id="WskvGfdPPy441grqd4b4-57" value="" style="verticalLabelPosition=bottom;shadow=0;dashed=0;align=center;html=1;verticalAlign=top;strokeWidth=1;shape=mxgraph.mockup.graphics.simpleIcon;strokeColor=#999999;fillColor=#ffffff;" vertex="1" parent="WskvGfdPPy441grqd4b4-0">
          <mxGeometry x="175" y="520" width="50" height="50" as="geometry" />
        </mxCell>
        <mxCell id="WskvGfdPPy441grqd4b4-58" value="" style="verticalLabelPosition=bottom;shadow=0;dashed=0;align=center;html=1;verticalAlign=top;strokeWidth=1;shape=mxgraph.mockup.graphics.simpleIcon;strokeColor=#999999;fillColor=#ffffff;" vertex="1" parent="WskvGfdPPy441grqd4b4-0">
          <mxGeometry x="250" y="520" width="50" height="50" as="geometry" />
        </mxCell>
        <mxCell id="WskvGfdPPy441grqd4b4-59" value="" style="verticalLabelPosition=bottom;shadow=0;dashed=0;align=center;html=1;verticalAlign=top;strokeWidth=1;shape=mxgraph.mockup.graphics.simpleIcon;strokeColor=#999999;fillColor=#ffffff;" vertex="1" parent="WskvGfdPPy441grqd4b4-0">
          <mxGeometry x="320" y="520" width="50" height="50" as="geometry" />
        </mxCell>
        <mxCell id="WskvGfdPPy441grqd4b4-60" value="" style="verticalLabelPosition=bottom;shadow=0;dashed=0;align=center;html=1;verticalAlign=top;strokeWidth=1;shape=mxgraph.mockup.graphics.simpleIcon;strokeColor=#999999;fillColor=#ffffff;" vertex="1" parent="WskvGfdPPy441grqd4b4-0">
          <mxGeometry x="395" y="520" width="50" height="50" as="geometry" />
        </mxCell>
        <mxCell id="WskvGfdPPy441grqd4b4-61" value="" style="verticalLabelPosition=bottom;shadow=0;dashed=0;align=center;html=1;verticalAlign=top;strokeWidth=1;shape=mxgraph.mockup.graphics.simpleIcon;strokeColor=#999999;fillColor=#ffffff;" vertex="1" parent="WskvGfdPPy441grqd4b4-0">
          <mxGeometry x="470" y="520" width="50" height="50" as="geometry" />
        </mxCell>
        <mxCell id="WskvGfdPPy441grqd4b4-62" value="" style="verticalLabelPosition=bottom;shadow=0;dashed=0;align=center;html=1;verticalAlign=top;strokeWidth=1;shape=mxgraph.mockup.graphics.simpleIcon;strokeColor=#999999;fillColor=#ffffff;" vertex="1" parent="WskvGfdPPy441grqd4b4-0">
          <mxGeometry x="550" y="520" width="50" height="50" as="geometry" />
        </mxCell>
        <mxCell id="WskvGfdPPy441grqd4b4-63" value="" style="verticalLabelPosition=bottom;shadow=0;dashed=0;align=center;html=1;verticalAlign=top;strokeWidth=1;shape=mxgraph.mockup.graphics.simpleIcon;strokeColor=#999999;fillColor=#ffffff;" vertex="1" parent="WskvGfdPPy441grqd4b4-0">
          <mxGeometry x="625" y="520" width="50" height="50" as="geometry" />
        </mxCell>
        <mxCell id="WskvGfdPPy441grqd4b4-64" value="" style="verticalLabelPosition=bottom;shadow=0;dashed=0;align=center;html=1;verticalAlign=top;strokeWidth=1;shape=mxgraph.mockup.graphics.simpleIcon;strokeColor=#999999;fillColor=#ffffff;" vertex="1" parent="WskvGfdPPy441grqd4b4-0">
          <mxGeometry x="700" y="520" width="50" height="50" as="geometry" />
        </mxCell>
        <mxCell id="WskvGfdPPy441grqd4b4-65" value="" style="verticalLabelPosition=bottom;shadow=0;dashed=0;align=center;html=1;verticalAlign=top;strokeWidth=1;shape=mxgraph.mockup.graphics.simpleIcon;strokeColor=#999999;fillColor=#ffffff;" vertex="1" parent="WskvGfdPPy441grqd4b4-0">
          <mxGeometry x="770" y="520" width="50" height="50" as="geometry" />
        </mxCell>
        <mxCell id="WskvGfdPPy441grqd4b4-66" value="" style="verticalLabelPosition=bottom;shadow=0;dashed=0;align=center;html=1;verticalAlign=top;strokeWidth=1;shape=mxgraph.mockup.graphics.simpleIcon;strokeColor=#999999;fillColor=#ffffff;" vertex="1" parent="WskvGfdPPy441grqd4b4-0">
          <mxGeometry x="845" y="520" width="50" height="50" as="geometry" />
        </mxCell>
        <mxCell id="WskvGfdPPy441grqd4b4-67" value="" style="verticalLabelPosition=bottom;shadow=0;dashed=0;align=center;html=1;verticalAlign=top;strokeWidth=1;shape=mxgraph.mockup.graphics.simpleIcon;strokeColor=#999999;fillColor=#ffffff;" vertex="1" parent="WskvGfdPPy441grqd4b4-0">
          <mxGeometry x="920" y="520" width="50" height="50" as="geometry" />
        </mxCell>
        <mxCell id="WskvGfdPPy441grqd4b4-68" value="" style="verticalLabelPosition=bottom;shadow=0;dashed=0;align=center;html=1;verticalAlign=top;strokeWidth=1;shape=mxgraph.mockup.graphics.simpleIcon;strokeColor=#999999;fillColor=#ffffff;" vertex="1" parent="WskvGfdPPy441grqd4b4-0">
          <mxGeometry x="995" y="290" width="50" height="50" as="geometry" />
        </mxCell>
        <mxCell id="WskvGfdPPy441grqd4b4-69" value="" style="verticalLabelPosition=bottom;shadow=0;dashed=0;align=center;html=1;verticalAlign=top;strokeWidth=1;shape=mxgraph.mockup.graphics.simpleIcon;strokeColor=#999999;fillColor=#ffffff;" vertex="1" parent="WskvGfdPPy441grqd4b4-0">
          <mxGeometry x="995" y="365" width="50" height="50" as="geometry" />
        </mxCell>
        <mxCell id="WskvGfdPPy441grqd4b4-70" value="" style="verticalLabelPosition=bottom;shadow=0;dashed=0;align=center;html=1;verticalAlign=top;strokeWidth=1;shape=mxgraph.mockup.graphics.simpleIcon;strokeColor=#999999;fillColor=#ffffff;" vertex="1" parent="WskvGfdPPy441grqd4b4-0">
          <mxGeometry x="995" y="440" width="50" height="50" as="geometry" />
        </mxCell>
        <mxCell id="WskvGfdPPy441grqd4b4-71" value="" style="verticalLabelPosition=bottom;shadow=0;dashed=0;align=center;html=1;verticalAlign=top;strokeWidth=1;shape=mxgraph.mockup.graphics.simpleIcon;strokeColor=#999999;fillColor=#ffffff;" vertex="1" parent="WskvGfdPPy441grqd4b4-0">
          <mxGeometry x="995" y="520" width="50" height="50" as="geometry" />
        </mxCell>
        <mxCell id="WskvGfdPPy441grqd4b4-72" value="&lt;div align=&quot;left&quot;&gt;Remember me&lt;br&gt;&lt;/div&gt;" style="text;strokeColor=none;fillColor=none;html=1;fontSize=24;fontStyle=1;verticalAlign=middle;align=left;" vertex="1" parent="WskvGfdPPy441grqd4b4-0">
          <mxGeometry x="100" y="210" width="100" height="40" as="geometry" />
        </mxCell>
      </root>
    </mxGraphModel>
  </diagram>
</mxfile>
